<?xml version="1.0" standalone="no"?><!DOCTYPE svg PUBLIC "-//W3C//DTD SVG 1.1//EN" "http://www.w3.org/Graphics/SVG/1.1/DTD/svg11.dtd"><svg t="1742463678446" class="icon" viewBox="0 0 2444 1024" version="1.1" xmlns="http://www.w3.org/2000/svg" p-id="2685" xmlns:xlink="http://www.w3.org/1999/xlink" width="76.375" height="32"><path d="M1930.528139 977.454545c257.108225 0 465.454545-208.34632 465.454545-465.454545s-208.34632-465.454545-465.454545-465.454545h-1418.528139c-257.108225 0-465.454545 208.34632-465.454545 465.454545s208.34632 465.454545 465.454545 465.454545h1418.528139m0 44.329005h-1418.528139c-281.489177 0-509.78355-228.294372-509.78355-509.78355s228.294372-509.78355 509.78355-509.78355h1418.528139c281.489177 0 509.78355 228.294372 509.783549 509.78355s-228.294372 509.78355-509.783549 509.78355z" fill="#519DE5" p-id="2686"></path><path d="M933.125541 489.835498v37.679654H678.233766c-37.679654 79.792208-75.359307 137.419913-115.255411 175.099567 132.987013-11.082251 223.861472-17.731602 270.406926-24.380953-22.164502-33.246753-46.545455-68.709957-75.359307-106.38961l31.030303-19.948052c55.411255 70.926407 97.52381 132.987013 124.121212 183.965368l-33.246753 22.164502c-8.865801-17.731602-17.731602-33.246753-26.597403-46.545455-124.121212 13.298701-239.376623 22.164502-350.199134 28.813853l-6.649351-31.030303c46.545455-24.380952 93.090909-86.441558 139.636364-181.748917h-177.316017v-37.679654h217.212121v-99.74026h-183.965368v-37.679654h183.965368v-84.225108h39.896104v84.225108h181.748918v37.679654h-181.748918v99.74026h217.212121z m518.649351-146.285714c0 181.748918-2.21645 294.787879-8.865801 341.333333-4.4329 44.329004-28.813853 66.493506-70.926407 66.493506-15.515152 0-39.896104 0-75.359307-2.21645l-8.865801-35.463203c39.896104 2.21645 66.493506 2.21645 77.575757 2.21645 22.164502 0 35.463203-13.298701 39.896104-42.112554 4.4329-28.813853 6.649351-126.337662 6.649351-292.571429H1263.376623c-15.515152 33.246753-33.246753 62.060606-53.194805 86.441559l-24.380952-31.030303c35.463203-46.545455 59.844156-104.17316 73.142857-172.883117l37.679654 4.4329c-4.4329 26.597403-11.082251 50.978355-19.948052 73.142857h175.099567v2.216451z m-301.43723-19.948052h-110.82251v299.220779h-35.463204V288.138528h179.532468v334.683983h-33.246754V323.601732z m-93.090909 330.251082c13.298701-28.813853 19.948052-68.709957 19.948052-117.471862v-175.099567H1108.225108v175.099567c0 59.844156-8.865801 106.38961-26.597402 141.852814-15.515152 33.246753-42.112554 57.627706-77.575758 77.575758l-19.948052-31.030303c35.463203-19.948052 59.844156-42.112554 73.142857-70.926407z m150.718615 70.926407l-26.597403 26.597402c-17.731602-26.597403-39.896104-57.627706-70.926407-88.658008l24.380953-24.380953c26.597403 28.813853 53.194805 57.627706 73.142857 86.441559z m135.203463-223.861472c17.731602 39.896104 33.246753 86.441558 50.978355 139.636364l-31.030303 15.515151-11.082251-37.679654c-39.896104 8.865801-84.225108 15.515152-137.419913 22.164503l-6.649351-33.246754c19.948052-15.515152 46.545455-75.359307 75.359307-179.532467l35.463204 11.082251c-22.164502 68.709957-44.329004 124.121212-66.493507 164.017316 33.246753-4.4329 64.277056-11.082251 90.874459-15.515152-8.865801-24.380952-17.731602-48.761905-26.597402-70.926407l26.597402-15.515151z m640.554113-148.502165c0 177.316017-2.21645 288.138528-8.865801 328.034632-6.649351 46.545455-35.463203 70.926407-86.441559 70.926407-6.649351 0-19.948052 0-39.896103-2.21645l-8.865801-35.463203c22.164502 2.21645 37.679654 2.21645 44.329004 2.21645 33.246753 0 50.978355-17.731602 55.411255-50.978355 4.4329-28.813853 6.649351-119.688312 6.649351-277.056277h-35.463203c-11.082251 88.658009-28.813853 159.584416-48.761905 210.56277-24.380952 55.411255-62.060606 106.38961-108.606061 148.502165L1728.831169 715.91342c44.329004-39.896104 77.575758-84.225108 99.74026-132.987013 19.948052-48.761905 35.463203-115.255411 46.545454-195.047619h-42.112554c-22.164502 115.255411-62.060606 199.480519-121.904762 252.675325l-24.380952-28.813853c55.411255-46.545455 93.090909-121.904762 113.038961-223.861472h-37.679654c-13.298701 33.246753-31.030303 62.060606-48.761905 84.225108L1684.502165 447.722944c33.246753-42.112554 57.627706-104.17316 73.142857-183.965368l35.463203 8.865801c-6.649351 28.813853-13.298701 55.411255-19.948052 77.575757h210.562771v2.21645z m-334.683983 190.614719c15.515152-6.649351 28.813853-13.298701 42.112554-22.164502v35.463203c-8.865801 4.4329-24.380952 11.082251-42.112554 22.164502V753.593074h-37.679654v-159.584416c-31.030303 11.082251-57.627706 22.164502-84.225108 28.813853l-8.865801-37.679654c31.030303-6.649351 62.060606-17.731602 93.090909-28.813853v-144.069264h-44.329004c-6.649351 28.813853-13.298701 55.411255-22.164502 77.575758l-33.246753-8.865801c19.948052-55.411255 31.030303-115.255411 33.246753-177.316017l33.246753 2.21645c0 24.380952-2.21645 46.545455-6.649351 68.709957h37.679654v-110.822511h37.679654v110.822511h44.329004v37.679653h-44.329004v130.770563h2.21645z" fill="#519DE5" p-id="2687"></path></svg>