<?xml version="1.0" standalone="no"?><!DOCTYPE svg PUBLIC "-//W3C//DTD SVG 1.1//EN" "http://www.w3.org/Graphics/SVG/1.1/DTD/svg11.dtd"><svg t="1739626296799" class="icon" viewBox="0 0 1024 1024" version="1.1" xmlns="http://www.w3.org/2000/svg" p-id="5082" width="32" height="32" xmlns:xlink="http://www.w3.org/1999/xlink"><path d="M991.314656 346.152125L760.827998 924.88149a149.255489 149.255489 0 1 1-25.107085-144.732596l114.982006-288.661121a37.69078 37.69078 0 0 0-23.820573-49.651321l-304.722419-97.694502a38.635562 38.635562 0 0 0-47.902469 22.513959L322.469148 761.052232a149.094675 149.094675 0 1 1-24.966372-148.551928L463.70404 180.915745a38.736071 38.736071 0 0 1 47.33962-22.915995l455.867472 138.300036a37.710882 37.710882 0 0 1 24.403524 49.852339zM251.71099 100.709765L165.273468 128.651196a14.352649 14.352649 0 0 0-9.126194 19.096662l76.889191 192.574759a95.101376 95.101376 0 0 1 12.623899 46.636059 99.383049 99.383049 0 1 1-99.362947-97.493485c0.46234 0 0.904579 0.201017 1.38702 0.201018l-82.417172-202.625634a35.499689 35.499689 0 0 1 23.197419-47.440129L214.904687 1.60814a35.419282 35.419282 0 0 1 42.213674 18.694627l15.458245 33.167886a34.373991 34.373991 0 0 1-20.865616 47.239112z" fill="#1296db" p-id="5083"></path></svg>